<svg viewBox="0 0 512 512" xml:space="preserve" xmlns="http://www.w3.org/2000/svg" enable-background="new 0 0 512 512"><g enable-background="new"><path d="M342.951 247.745c-8.171-4.596-17.69-5.941-26.687-5.731l24.238-34.603c2.244-3.111 3.511-5.072 3.521-6.572l.004-8.956c-.004-1.546-1.202-2.635-2.699-2.638l-46.794.006c-1.441-.003-2.637 1.057-2.646 2.644v10.441c.012 1.562 1.21 2.629 2.705 2.629l24.449.003-28.08 40.285c-1.711 2.586-1.741 5.483-1.741 7.176v10.591c0 1.534 1.701 3.288 3.331 2.419 15.925-8.46 35.037-7.637 49.441-.091 1.763.922 3.443-.854 3.443-2.387v-11.139c-.144-1.506-.638-3.041-2.485-4.077zm-162.787-59.843c-8.372 0-16.213 4.305-19.666 13.529-3.987-9.225-9.568-13.529-18.472-13.529-8.769 0-15.281 4.305-18.736 13.529h-.266v-9.537c-.089-1.333-1.202-2.384-2.588-2.454l-13.257.003c-1.519 0-2.749 1.17-2.749 2.632l-.009 73.063c.109 1.299 1.192 2.314 2.546 2.404h14.236c1.516 0 2.748-1.173 2.745-2.629l.006-38.727c0-8.457-.4-20.142 9.834-20.142 10.098 0 8.77 11.994 8.77 20.142l.013 38.729c0 1.403 1.126 2.533 2.555 2.626h14.22c1.514 0 2.744-1.173 2.744-2.629v-38.727c0-4.153-.134-10.302 1.33-13.993 1.462-3.688 5.05-5.994 8.505-5.994 4.119 0 7.309 1.384 8.371 6.304.666 2.921.398 10.607.398 13.684l.003 38.729c0 1.403 1.128 2.533 2.557 2.626h14.219c1.516 0 2.746-1.173 2.746-2.629l.012-46.107c0-7.844.93-16.759-3.591-22.907-3.985-5.536-10.496-7.996-16.476-7.996zm204.144 0c-20.597 0-32.024 17.682-32.024 40.435 0 22.604 11.297 40.746 32.024 40.746 19.934 0 32.555-17.684 32.555-39.976-.001-23.062-11.425-41.205-32.555-41.205zm0 66.112c-11.159 0-11.028-19.064-11.028-27.982s.662-23.214 11.162-23.214c4.515 0 7.707 1.999 9.3 7.071 1.862 5.842 2.128 13.222 2.128 19.373-.001 9.376-.529 24.752-11.562 24.752zm97.942-57.499c-3.986-6.304-10.231-8.612-16.613-8.612-9.831 0-15.411 4.769-19.395 14.761h-.271V191.49c-.26-1.135-1.283-1.987-2.527-2.049l-13.204.003c-1.436 0-2.614 1.051-2.737 2.384l.023 73.089c0 1.403 1.126 2.533 2.557 2.626h14.182c1.518 0 2.749-1.173 2.772-2.629V225.57c0-4.92.266-9.379 2.262-13.838 1.593-3.534 4.779-5.842 8.235-5.842 9.837 0 8.905 11.684 8.905 19.68v39.673c.152 1.243 1.218 2.215 2.536 2.299h14.271c1.406 0 2.567-1.004 2.73-2.299v-45.977c0-7.073 0-16.91-3.726-22.751zm-207.686 44.449v-22.179c0-9.398.666-18.031-6.26-24.5-5.459-5.238-14.515-7.089-21.44-7.089-13.547 0-28.664 5.058-31.835 21.796-.336 1.78.96 2.714 2.125 2.977l13.797 1.494c1.291-.067 2.225-1.337 2.473-2.617 1.187-5.767 6.013-8.551 11.441-8.551 2.931 0 6.26 1.08 7.992 3.7 1.996 2.927 1.731 6.934 1.731 10.324v1.848c-8.257.925-19.044 1.541-26.768 4.932-8.922 3.852-15.18 11.708-15.18 23.267 0 14.789 9.322 22.187 21.307 22.187 10.122 0 15.655-2.387 23.471-10.348 2.583 3.741 3.431 5.557 8.158 9.487 1.063.571 2.42.511 3.364-.333l.032.032c2.842-2.53 8.009-7.016 10.918-9.455 1.16-.945.955-2.486.047-3.782-2.602-3.595-5.373-6.519-5.373-13.19zm-22.639 6.787c-2.265 4.01-5.86 6.47-9.854 6.47-5.461 0-8.657-4.161-8.657-10.321 0-12.122 10.875-14.331 21.175-14.331v3.084c0 5.547.131 10.166-2.664 15.098zm-163.978-6.787v-22.179c0-9.398.666-18.031-6.258-24.5-5.461-5.238-14.517-7.089-21.441-7.089-13.547 0-28.664 5.058-31.834 21.796-.337 1.78.958 2.714 2.124 2.977l13.797 1.494c1.291-.067 2.227-1.337 2.473-2.617 1.185-5.767 6.013-8.551 11.442-8.551 2.928 0 6.258 1.08 7.991 3.7 1.996 2.927 1.73 6.934 1.73 10.324v1.848c-8.257.925-19.044 1.541-26.769 4.932-8.921 3.852-15.18 11.708-15.18 23.267 0 14.789 9.32 22.187 21.307 22.187 10.12 0 15.656-2.387 23.469-10.348 2.585 3.741 3.432 5.557 8.161 9.487 1.061.571 2.42.511 3.363-.333l.033.032c2.841-2.53 8.011-7.016 10.917-9.455 1.158-.945.954-2.486.047-3.782-2.601-3.595-5.372-6.519-5.372-13.19zm-22.639 6.787c-2.263 4.01-5.86 6.47-9.854 6.47-5.458 0-8.655-4.161-8.655-10.321 0-12.122 10.876-14.331 21.174-14.331v3.084c0 5.547.132 10.166-2.665 15.098z" fill-rule="evenodd" clip-rule="evenodd" fill="#656565" class="fill-080404"></path></g><g enable-background="new"><path d="M307.486 289.35c-29.959 12.709-62.519 18.852-92.138 18.852-43.908 0-86.42-12.043-120.796-32.048-3.007-1.75-5.24 1.34-2.739 3.596 31.865 28.773 73.968 46.055 120.728 46.055 33.36 0 72.106-10.491 98.83-30.212 4.421-3.264.635-8.16-3.885-6.243zm26.408-15.161c-2.913-3.592-27.977-6.697-43.272 4.048-2.352 1.654-1.947 3.928.66 3.616 8.615-1.027 27.793-3.333 31.211 1.044 3.421 4.377-3.803 22.415-7.025 30.472-.978 2.434 1.119 3.42 3.325 1.576 14.336-11.997 18.039-37.122 15.101-40.756z" fill-rule="evenodd" clip-rule="evenodd" fill="#656565" class="fill-f2941b"></path></g></svg>