<svg viewBox="0 0 512 512" xml:space="preserve" xmlns="http://www.w3.org/2000/svg" enable-background="new 0 0 512 512"><path d="M252.448 235.16v-26.617h-85.785c-12.663 0-23.368 8.803-26.299 20.593v-20.462H89.159l-17.45 26.475h67.865l112.874.011zm30.995-26.484h-26.747v26.473h26.747v-26.473zm83.556 0h-26.742v26.473h26.742v-26.473zM26.022 304.457h33.085l42.296-65.913-30.761-1.776-44.62 67.689zm368.354-95.914c-14.738 0-26.824 11.927-27.09 26.605l118.691.012v-26.617h-91.601zm64.506 37.887-5.065-.223c-28.724-1.264-57.361-2.711-86.049-4.191 2.232 11.256 11.732 20.628 26.608 22.641l62.534 3.836a4.687 4.687 0 0 1 4.676 4.675 4.688 4.688 0 0 1-4.676 4.676h-89.911v-35.867l-26.742-1.38v30.677c0 4.297-3.514 7.805-7.805 7.805h-41.204c-4.297 0-7.805-3.508-7.805-7.805v-33.607l-26.747-1.38v30.409c-3.057-11.504-13.676-19.797-26.21-19.797L112.7 239.198v65.261h117.786c13.138 0 24.167-9.474 26.598-21.929 2.145 12.414 13.002 21.929 25.975 21.929h57.582c12.864 0 23.654-9.361 25.918-21.626v21.626h92.323c14.902 0 27.096-12.188 27.096-27.096v-3.836c0-14.904-12.194-27.097-27.096-27.097zm-230.364 31.413h-88.154v-34.461c2.709 10.64 12.032 19.344 26.299 21.274l61.855 3.836a4.69 4.69 0 0 1 4.676 4.675 4.69 4.69 0 0 1-4.676 4.676z" fill-rule="evenodd" clip-rule="evenodd" fill="#656565" class="fill-1b1b1b"></path></svg>