<svg viewBox="0 0 512 512" xml:space="preserve" xmlns="http://www.w3.org/2000/svg" enable-background="new 0 0 512 512"><path d="M94.202 239.51H76.158l-1.615 16.085h16.51c10.096 0 10.848 1.922 10.848 8.481v2.776H88.556c-13.112 0-20.441 4.584-20.441 17.427 0 10.89 6.281 18.762 18.085 18.762 4.323 0 10.88-.66 18.231-4.725l.694 4.064h16.091v-38.176c-.001-17.702-4.859-24.694-27.014-24.694zm7.699 47.264c-2.876 1.319-5.206 2.601-9.147 2.601-3.672 0-5.335-1.827-5.335-5.346 0-3.546 1.79-4.3 5.868-4.3h8.615v7.045zm384.36-47.264h-20.928l-17.692 28.01v-56.972l-19.304 3.214v88.498h19.304v-29.492l17.692 29.492h20.928l-19.319-32.185 19.319-30.565zm-153.379-.864c-22.693 0-28.215 12.72-28.215 25.836v12.661c0 13.111 5.521 25.829 28.215 25.829 22.679 0 28.102-12.718 28.102-25.829v-12.661c-.001-13.116-5.423-25.836-28.102-25.836zm8.778 40.363c0 4.467-2.294 8.054-8.843 8.054-6.567 0-8.842-3.587-8.842-8.054v-16.267c0-4.452 2.274-8.031 8.842-8.031 6.549 0 8.843 3.579 8.843 8.031v16.267zM69.822 239.51H55.23l.024-8.051c0-4.193.4-6.441 6.425-6.441h8.05v-16.085H56.845c-15.473 0-20.919 7.804-20.919 20.923v9.654h-9.65v16.085h9.65v46.665H55.23v-46.665h12.884l1.708-16.085zm57.831 25.738v11.266c0 15.729 8.235 26.614 28.965 26.614 4.829 0 10.541-.516 19.313-2.483v-15.683c-10.014 1.722-12.888 2.101-17.706 2.101-8.655 0-11.269-1.911-11.269-9.252v-13.886c0-7.333 2.614-9.244 11.269-9.244 4.818 0 7.692.379 17.706 2.093v-15.681c-8.772-1.968-14.485-2.489-19.313-2.489-20.729 0-28.965 10.905-28.965 26.644zm148.94-26.644c-4.914 0-10.313.784-14.484 2.334v-30.39l-19.3 3.214v86.883c10.503 1.615 16.092 2.453 25.602 2.453 26.354 0 30.702-11.087 30.702-26.288v-15.676c-.001-13.886-3.213-22.53-22.52-22.53zm3.216 38.338c0 6.032-1.293 10.358-10.746 10.358-2.62 0-4.193 0-6.954-.269V257.31c2.878-1.312 5.714-2.601 9.653-2.601 6.568 0 8.047 3.579 8.047 8.031v14.202zm114.898-38.296c-22.693 0-28.218 12.72-28.218 25.836v12.661c0 13.111 5.524 25.829 28.218 25.829 22.672 0 28.098-12.718 28.098-25.829v-12.661c0-13.116-5.426-25.836-28.098-25.836zm8.797 40.363c0 4.467-2.316 8.054-8.865 8.054-6.556 0-8.831-3.587-8.831-8.054v-16.267c0-4.452 2.275-8.031 8.831-8.031 6.549 0 8.865 3.579 8.865 8.031v16.267zM209 238.604c-21.238 0-27.358 11.272-27.358 25.029v12.881c0 15.729 8.243 26.614 28.973 26.614 9.462 0 14.482-.516 24.12-2.483v-15.683c-9.993 1.722-14.739 2.101-22.52 2.101-8.651 0-11.267-1.911-11.267-9.252v-1.297h35.402v-12.881c.001-13.89-6.106-25.029-27.35-25.029zm8.046 25.029h-16.098v-2.499c0-4.451 1.494-8.046 8.052-8.046 6.55 0 8.046 3.595 8.046 8.046v2.499z" fill-rule="evenodd" clip-rule="evenodd" fill="#656565" class="fill-004a9a"></path></svg>