<svg width="1440" height="628" viewBox="0 0 1440 628" fill="none" xmlns="http://www.w3.org/2000/svg">
<g clip-path="url(#clip0_4_12)">
<rect width="1440" height="628" fill="#1D221E"/>
<g filter="url(#filter0_f_4_12)">
<path fill-rule="evenodd" clip-rule="evenodd" d="M3.83724 -143.624C104.175 -145.564 212.773 -141.667 284.044 -90.9747C355.503 -40.1486 380.226 39.2271 360.413 109.995C343.194 171.498 251.031 198.588 190.329 243.75C127.424 290.551 92.9893 363.571 3.83724 375.285C-94.3175 388.182 -194.728 353.615 -266.309 303.75C-338.877 253.197 -377.864 182.549 -376.985 109.995C-376.115 38.057 -335.163 -31.4726 -261.659 -80.4243C-190.625 -127.732 -93.0629 -141.751 3.83724 -143.624Z" fill="#3F522B"/>
</g>
<g filter="url(#filter1_f_4_12)">
<path fill-rule="evenodd" clip-rule="evenodd" d="M1197.29 183.788C1296.81 190.58 1394.26 215.643 1465.36 278.926C1537 342.682 1587.87 430.914 1576.38 521.177C1565.68 605.191 1471.13 649.374 1410.05 713.448C1339.64 787.321 1305.05 923.666 1197.29 918.877C1088.76 914.054 1068.03 775.059 1004.47 695.423C957.926 637.115 898.108 591.151 879.843 521.177C855.028 426.111 815.403 313.762 885.418 239.349C956.769 163.515 1087.45 176.293 1197.29 183.788Z" fill="#475933"/>
</g>
<path d="M1437 483C1437 701.705 1259.7 879 1041 879C822.295 879 645 701.705 645 483C645 264.295 822.295 87 1041 87C1259.7 87 1437 264.295 1437 483Z" fill="#D9D9D9" fill-opacity="0.03"/>
<g filter="url(#filter2_f_4_12)">
<ellipse cx="1224" cy="54.5" rx="213" ry="209.5" fill="#54546C"/>
</g>
</g>
<defs>
<filter id="filter0_f_4_12" x="-777" y="-544" width="1544" height="1322" filterUnits="userSpaceOnUse" color-interpolation-filters="sRGB">
<feFlood flood-opacity="0" result="BackgroundImageFix"/>
<feBlend mode="normal" in="SourceGraphic" in2="BackgroundImageFix" result="shape"/>
<feGaussianBlur stdDeviation="200" result="effect1_foregroundBlur_4_12"/>
</filter>
<filter id="filter1_f_4_12" x="646" y="-22" width="1132" height="1141" filterUnits="userSpaceOnUse" color-interpolation-filters="sRGB">
<feFlood flood-opacity="0" result="BackgroundImageFix"/>
<feBlend mode="normal" in="SourceGraphic" in2="BackgroundImageFix" result="shape"/>
<feGaussianBlur stdDeviation="100" result="effect1_foregroundBlur_4_12"/>
</filter>
<filter id="filter2_f_4_12" x="611" y="-555" width="1226" height="1219" filterUnits="userSpaceOnUse" color-interpolation-filters="sRGB">
<feFlood flood-opacity="0" result="BackgroundImageFix"/>
<feBlend mode="normal" in="SourceGraphic" in2="BackgroundImageFix" result="shape"/>
<feGaussianBlur stdDeviation="200" result="effect1_foregroundBlur_4_12"/>
</filter>
<clipPath id="clip0_4_12">
<rect width="1440" height="628" fill="white"/>
</clipPath>
</defs>
</svg>
