<svg viewBox="0 0 512 512" xml:space="preserve" xmlns="http://www.w3.org/2000/svg" enable-background="new 0 0 512 512"><path d="M351.748 351.29c-4.15 1.533-8.223 2.536-12.33 4.152-6.144 2.416-18.532 5.735-25.381 7.204-8.818 1.891-17.205 4.289-26.445 6.139-9.529 1.907-18.018 2.934-27.912 4.671-9.151 1.608-19.985 2.164-29.749 2.836-10.197.702-20.78 1.151-31.815 1.151h-2.3c-39.283 0-76.76-6.178-102.989-19.296-25.229-12.619-48.813-36.007-48.813-73.473v-3.45c0-17.625 5.414-31.166 10.504-43.93 2.234-5.603 6.447-12.744 9.659-17.558 2.007-3.008 3.637-5.197 5.744-8.056 1.884-2.555 4.819-5.308 6.293-7.508v-12.267c-6.112 4.093-12.536 12.145-17.721 17.547-5.883 6.129-10.245 12.965-15.093 20.174-7.197 10.699-17.403 35.597-17.403 53.13v12.268c0 21.642 8.584 40.881 17.325 53.976 9.894 14.826 23.076 23.597 38.182 33.12 11.918 7.514 35.985 15.849 52.242 19.06 20.041 3.957 40.267 6.93 64.371 6.93H210c74.079 0 149.344-21.509 197.804-47.15v-34.884c-13.112 6.938-29.256 16.099-44.393 20.774-3.219.996-8.292 3.193-11.663 4.44zm132.187-159.996c-.722-4.01-2.175-9.129-3.562-12.54-3.463-8.516-6.339-14.273-11.516-21.068-9.574-12.572-20.979-21.657-35.24-29.545-26.18-14.479-66.028-23.251-106.699-23.251h-3.45c-41.966 0-76.674 6.979-109.479 16.255-8.664 2.45-15.711 4.979-23.781 7.653-6.681 2.213-16.462 5.919-22.509 8.925-7.168 3.563-14.317 6.624-21.334 10.1-3.717 1.843-17.99 10.575-20.316 11.118v9.199c3.163-.736 14.813-7.172 19.291-9.077 6.213-2.642 14.012-6.564 20.269-8.48 2.837-.869 7.526-2.644 10.341-3.843 3.417-1.457 6.988-2.348 10.619-3.564 6.921-2.32 14.658-4.938 21.978-6.772 15.769-3.954 29.664-7.164 46.914-10.205 14.698-2.59 35.37-5.208 51.91-5.208h17.25c33.585 0 69.945 7.712 91.486 19.682 13.07 7.264 21.853 13.375 30.867 24.717 6.794 8.548 15.265 25.598 15.265 40.703v6.517c0 15.921-8.271 33.042-15.175 42.326-4.187 5.629-8.335 10.645-13.474 15.276-2.498 2.252-14.164 11.512-16.97 12.165v25.3c5.404-.448 21.664-10.918 25.843-14.023 7.699-5.727 14.597-12.314 20.473-19.778 6.683-8.486 10.287-14.706 15.147-25.104 2.201-4.706 3.473-9.541 5.076-14.858.65-2.158 2.802-17.399 2.847-17.47v-11.117c-.132-.207-1.785-12.44-2.071-14.033zm-120.984 77.281v-10.351c0-12.192-4.36-23.934-9.688-30.945-5.058-6.655-15.318-14.288-26.729-14.288h-7.283c-12.057 0-22.967 7.568-28.853 14.081-6.01 6.65-11.014 19.314-11.014 31.919v4.601c0 26.355 16.17 45.616 42.55 45.616h4.983c7.985 0 13.688-1.934 19.402-4.362 6.223-2.645 9.387-7.148 14.046-10.307l-15.049-14.081c-2.964 4.427-11.176 8.817-18.783 8.817h-4.217c-9.978 0-19.166-8.483-19.166-18.017v-2.684h59.801zm-59.8-18.784c0-8.64 8.424-17.25 17.249-17.25h1.917c10.023 0 16.868 8.5 16.868 18.017v1.917h-36.034v-2.684zm-88.552 57.884v-65.551c0-15.554-10.585-27.601-26.067-27.601h-50.601v93.151h23.384V233.69h21.083c4.646 0 8.434 3.597 8.434 8.051v65.934h23.767zm17.25-118.834v91.233c0 15.743 10.236 27.601 25.684 27.601h16.101v-19.934H261.75c-3.52 0-6.133-4.073-6.133-7.667V233.69h18.017v-19.167h-18.017V188.84h-23.768zm168.67 118.068V175.808h-23.767v109.251c0 6.363 3.854 12.134 7.181 15.436 1.787 1.772 4.609 3.235 7.226 4.275 3.661 1.457 5.554 1.252 9.36 2.139zm-283.671 1.916v-94.302l-23.679.003-.565 21.846.093 46.386c0 15.714 9.212 25.734 24.151 26.067zm0-129.952H93.081v22.618h23.767v-22.618zm306.791 7.26h.969c.581 0 1.024.116 1.326.353.438.319 1.012 1.115 1.726 2.381l.909 1.614h2.02l-1.249-2.003c-.599-.95-1.103-1.626-1.515-2.031-.216-.21-.51-.392-.87-.542.882-.069 1.593-.379 2.127-.934.534-.556.8-1.206.8-1.955 0-.529-.159-1.028-.479-1.502-.321-.47-.748-.801-1.286-.99s-1.408-.28-2.612-.28h-3.518v10.237h1.652v-4.348zm0-4.503h1.878c.809 0 1.36.056 1.661.177a1.5 1.5 0 0 1 .697.533c.168.241.255.512.255.813 0 .474-.177.853-.526 1.137-.349.284-1.002.431-1.958.431h-2.007v-3.091zm-2.212 11.847c1.507.839 3.086 1.257 4.735 1.257 1.648 0 3.224-.418 4.735-1.257a8.82 8.82 0 0 0 3.517-3.526c.839-1.511 1.258-3.086 1.258-4.727 0-1.656-.427-3.25-1.274-4.773a8.751 8.751 0 0 0-3.557-3.521c-1.523-.817-3.082-1.227-4.679-1.227-1.598 0-3.16.409-4.679 1.227a8.77 8.77 0 0 0-3.565 3.521c-.853 1.523-1.278 3.117-1.278 4.773 0 1.641.418 3.216 1.261 4.727a8.85 8.85 0 0 0 3.526 3.526zm-3.211-8.253c0-1.381.356-2.707 1.071-3.981a7.383 7.383 0 0 1 2.971-2.936c1.265-.685 2.564-1.029 3.904-1.029 1.326 0 2.626.345 3.896 1.029s2.26 1.666 2.971 2.936c.71 1.274 1.063 2.601 1.063 3.981 0 1.369-.349 2.683-1.046 3.939s-1.675 2.238-2.936 2.94c-1.261.701-2.578 1.055-3.947 1.055-1.373 0-2.686-.354-3.947-1.055a7.482 7.482 0 0 1-2.945-2.94c-.703-1.257-1.055-2.57-1.055-3.939z" fill-rule="evenodd" clip-rule="evenodd" fill="#656565" class="fill-0072bb"></path></svg>