<svg viewBox="0 0 512 512" xml:space="preserve" xmlns="http://www.w3.org/2000/svg" enable-background="new 0 0 512 512"><g enable-background="new"><path d="M43.391 217.477H26v77.115h48.053v-14.645H43.391v-62.47zm45.646-3.087c-5.606 0-9.268 3.775-9.268 8.695 0 4.804 3.547 8.694 9.039 8.694 5.834 0 9.381-3.891 9.381-8.694-.113-4.92-3.547-8.695-9.152-8.695zm-8.81 80.202h17.392v-55.947H80.227v55.947zm60.863-57.206c-9.381 0-14.987 5.377-17.275 9.039h-.344l-.802-7.78h-15.102c.229 5.035.457 10.869.457 17.848v38.1h17.392v-32.264c0-1.603.114-3.204.571-4.349 1.259-3.202 4.12-6.521 8.926-6.521 6.292 0 8.809 4.92 8.809 12.127v31.006h17.392v-33.065c-.001-16.475-8.582-24.141-20.024-24.141zm84.318 1.259h-20.937l-11.327 16.818a75.35 75.35 0 0 0-4.004 6.75h-.229v-48.854H171.52v81.232h17.392v-17.506l4.347-5.491 13.616 22.997h21.395l-22.882-33.294 20.02-22.652zm28.029-1.259c-19.448 0-28.259 15.675-28.259 29.861 0 17.506 10.87 28.488 29.863 28.488 7.551 0 14.529-1.144 20.25-3.547l-2.286-11.784c-4.693 1.602-9.498 2.403-15.447 2.403-8.124 0-15.332-3.434-15.789-10.641h36.039c.229-1.259.572-3.891.572-6.864-.001-13.843-6.864-27.916-24.943-27.916zm-11.784 22.882c.457-4.575 3.433-11.327 10.755-11.327 8.009 0 9.838 7.094 9.838 11.327h-20.593zm97.819 17.62V213.36H322.08v30.205h-.229c-2.518-3.776-7.78-6.293-14.759-6.293-13.386 0-25.17 10.983-25.056 29.861 0 17.392 10.641 28.719 23.912 28.719 7.207 0 14.072-3.205 17.506-9.384h.342l.686 8.124h15.447c-.229-3.776-.457-10.412-.457-16.704zm-17.392-8.237a22.58 22.58 0 0 1-.343 4.004c-1.03 4.919-5.148 8.351-10.183 8.351-7.207 0-11.9-5.95-11.9-15.444 0-8.811 4.005-15.903 12.016-15.903 5.378 0 9.152 3.891 10.182 8.466.229 1.029.229 2.287.229 3.204v7.322z" fill-rule="evenodd" clip-rule="evenodd" fill="#656565" class="fill-000000"></path></g><g enable-background="new"><path d="M472.968 191.104H369.771c-7.199 0-13.032 5.854-13.032 13.075V308.82c0 7.222 5.833 13.075 13.032 13.075h103.196c7.199 0 13.032-5.854 13.032-13.075V204.18c.001-7.221-5.832-13.076-13.031-13.076zm-74.752 103.488h-17.391v-55.947h17.391v55.947zm-8.81-62.813c-5.491 0-9.038-3.891-9.038-8.694 0-4.92 3.66-8.695 9.267-8.695 5.605 0 9.039 3.775 9.152 8.695 0 4.804-3.547 8.694-9.381 8.694zm72.305 62.813h-17.39v-31.006c0-7.207-2.519-12.127-8.812-12.127-4.805 0-7.664 3.318-8.923 6.521-.457 1.145-.573 2.746-.573 4.349v32.264h-17.39v-38.1c0-6.979-.229-12.813-.457-17.848h15.102l.802 7.78h.343c2.288-3.662 7.895-9.039 17.276-9.039 11.441 0 20.021 7.666 20.021 24.141v33.065z" fill-rule="evenodd" clip-rule="evenodd" fill="#656565" class="fill-006699"></path></g></svg>