<svg viewBox="0 0 512 512" xml:space="preserve" xmlns="http://www.w3.org/2000/svg" enable-background="new 0 0 512 512"><path d="M321.685 227.353c-14.067-.185-19.343 12.533-19.343 26.246 0 12.396 4.642 26.771 19.343 26.771 15.338-.17 19.123-15.543 19.123-26.771 0-14.206-6.272-26.073-19.123-26.246zm86.7-1.989c-12.077 0-19.335 7.437-21.958 19.163h42.252c-1.305-11.048-9.56-19.163-20.294-19.163zm77.608-6.832c0-13.992-11.307-25.293-25.29-25.293a25.112 25.112 0 0 0-18.313 7.867c-10.7-7.437-23.662-11.793-37.69-11.793-14.166 0-27.231 4.458-38.005 12.04-4.85-4.498-11.294-7.229-18.413-7.229a26.986 26.986 0 0 0-14.38 4.145c-9.884-17.635-28.726-29.539-50.367-29.539-19.797 0-37.229 9.922-47.672 25.042-8.714-8.954-20.899-14.52-34.393-14.52a47.638 47.638 0 0 0-24.405 6.69c-.172-17.035-13.992-30.776-31.061-30.776-17.18 0-31.096 13.921-31.096 31.062l.072 1.206a69.277 69.277 0 0 0-10.202-.779 67.353 67.353 0 0 0-28.3 6.197c-4.85-2.585-10.343-4.076-16.223-4.076-18.876 0-34.248 15.338-34.248 34.255 0 10.022 4.357 18.981 11.194 25.254a71.995 71.995 0 0 0-.286 6.232c0 37.475 30.391 67.826 67.864 67.826a67.624 67.624 0 0 0 39.097-12.397c9.956 13.606 26.004 22.493 44.136 22.493.459 0 .886-.034 1.308-.075 5.244 14.843 19.306 25.471 35.915 25.471 16.794 0 31.063-10.908 36.09-26.034 5.778 10.945 17.213 18.384 30.423 18.384 16.508 0 30.288-11.652 33.616-27.165 2.374.314 4.813.533 7.261.533 13.463 0 25.683-5.109 34.989-13.429a65.733 65.733 0 0 0 37.086 11.407c36.522 0 66.095-29.614 66.095-66.129 0-4.501-.427-8.926-1.312-13.176 9.631-3.58 16.51-12.82 16.51-23.694zm-45.09 39.842h-54.477c0 12.716 8.251 21.995 22.276 21.995 18.172 0 18.172-11.898 27.911-11.898 5.776 0 9.917 4.959 9.917 9.419 0 14.521-23.302 21.284-37.828 21.284-27.409 0-40.943-15.085-45.013-32.015-3.647 17.749-15.273 32.015-35.92 32.015-11.049 0-19.296-4.457-23.76-12.213h-.354v32.199c0 7.93-4.787 12.072-12.044 12.072-7.268 0-12.044-4.143-12.044-12.072v-89.825l-27.098 76.789c-5.767 16.502-12.397 25.108-27.59 25.108-10.729 0-15.196-5.276-15.196-11.086 0-6.451 4.642-9.743 11.091-9.743h2.476c3.118 0 6.586-.137 8.398-7.579l-25.08-71.507c-.884-2.587-1.557-4.532-2.049-6.165-.57.745-1.204 1.416-1.956 2.2l-17.812 18.664 25.114 33.684c.813 1.13 2.476 3.791 2.476 7.753 0 6.13-4.956 11.721-11.401 11.721-5.951 0-9.105-2.968-10.909-5.591l-22.779-32.233-8.427 7.438v18.347c0 7.903-4.783 12.039-12.044 12.039-7.296 0-12.079-4.136-12.079-12.039v-8.89c-4.317 14.238-20.434 20.929-35.983 20.929-21.783 0-39.95-9.737-39.95-21.636 0-5.276 2.973-10.058 9.738-10.058 10.411 0 11.407 14.873 29.22 14.873 8.573 0 14.027-3.825 14.027-8.746 0-6.127-5.28-7.117-13.848-9.279l-14.203-3.439c-14.026-3.465-24.935-9.278-24.935-25.467 0-19.616 19.48-26.913 36.158-26.913 18.31 0 36.835 7.297 36.835 18.345 0 5.628-3.824 10.557-10.091 10.557-9.423 0-9.743-11.054-24.936-11.054-8.427 0-13.883 2.302-13.883 7.437 0 5.6 5.456 6.943 12.892 8.578l10.057 2.334c11.586 2.621 25.009 7.19 28.9 18.667v-75.334c0-7.898 4.783-12.041 12.079-12.041 7.261 0 12.044 4.143 12.044 12.041v54.821l26.74-29.713c2.481-2.655 5.633-4.638 9.245-4.638 3.931 0 8.108 2.549 10.13 6.232 1.948-3.757 5.845-6.232 10.377-6.232 6.444 0 10.908 3.646 12.358 9.1l15.549 56.316h.321l14.703-54.648c1.663-6.13 4.955-10.768 11.579-10.768 5.702 0 8.995 2.829 10.735 5.735 1.445-3.719 4.672-5.735 9.877-5.735 7.119 0 10.908 3.997 10.908 11.401v3.791h.354c3.973-10.23 13.709-15.192 25.396-15.192 17.212 0 32.584 10.803 36.734 33.363 4.67-20.399 20.361-33.363 44.06-33.363 27.733 0 43.599 19.656 43.599 39.49.004 8.253-2.477 10.375-10.585 10.375zm16.324-45.335h-4.53v12.399h-3.366v-12.399h-4.535v-2.796h12.432v2.796zm18.097 12.399h-3.113s-.036 0-.036-10.769l-3.723 10.769h-2.585s-.036 0-3.752-10.663v10.663h-3.154v-15.195h4.715s.036 0 3.612 10.446l3.365-10.446h4.671v15.195z" fill-rule="evenodd" clip-rule="evenodd" fill="#656565" class="fill-00adef"></path></svg>